<?xml version="1.0" encoding="UTF-8"?>
<svg xmlns="http://www.w3.org/2000/svg" xmlns:xlink="http://www.w3.org/1999/xlink" width="90px" height="60px" viewBox="0 0 90 60" version="1.1">
<defs>
<clipPath id="clip1">
  <path d="M 15.03125 35.019531 L 74.972656 35.019531 L 74.972656 35.628906 L 15.03125 35.628906 Z M 15.03125 35.019531 "/>
</clipPath>
<clipPath id="clip2">
  <path d="M 15.03125 24.363281 L 74.972656 24.363281 L 74.972656 33.582031 L 15.03125 33.582031 Z M 15.03125 24.363281 "/>
</clipPath>
<clipPath id="clip3">
  <path d="M 15.03125 35.019531 L 28.214844 35.019531 L 28.214844 35.628906 L 15.03125 35.628906 Z M 15.03125 35.019531 "/>
</clipPath>
</defs>
<g id="surface1">
<rect x="0" y="0" width="90" height="60" style="fill:rgb(7.058824%,7.058824%,7.058824%);fill-opacity:1;stroke:none;"/>
<g clip-path="url(#clip1)" clip-rule="nonzero">
<path style=" stroke:none;fill-rule:nonzero;fill:rgb(96.078432%,96.078432%,96.078432%);fill-opacity:1;" d="M 17.433594 35.019531 L 72.566406 35.019531 C 73.898438 35.019531 74.96875 35.027344 74.96875 35.042969 L 74.96875 35.605469 C 74.96875 35.621094 73.898438 35.636719 72.566406 35.636719 L 17.433594 35.636719 C 16.101562 35.636719 15.03125 35.621094 15.03125 35.605469 L 15.03125 35.042969 C 15.03125 35.027344 16.101562 35.019531 17.433594 35.019531 Z M 17.433594 35.019531 "/>
</g>
<g clip-path="url(#clip2)" clip-rule="nonzero">
<path style=" stroke:none;fill-rule:nonzero;fill:rgb(96.078432%,96.078432%,96.078432%);fill-opacity:1;" d="M 21.179688 31.441406 L 20.898438 31.441406 C 19.035156 31.441406 17.59375 31.136719 16.566406 30.550781 C 15.539062 29.953125 15.03125 29.066406 15.03125 27.902344 C 15.03125 26.734375 15.539062 25.855469 16.566406 25.261719 C 17.59375 24.664062 19.070312 24.363281 21.003906 24.363281 L 23.628906 24.363281 C 25.5625 24.363281 27.039062 24.664062 28.070312 25.261719 C 29.089844 25.855469 29.601562 26.734375 29.601562 27.902344 C 29.601562 29.066406 29.089844 29.953125 28.070312 30.550781 C 27.039062 31.136719 25.589844 31.441406 23.699219 31.441406 L 23.511719 31.441406 L 23.511719 32.460938 L 21.179688 32.460938 Z M 21.179688 28.949219 L 23.511719 28.949219 L 23.511719 30.167969 C 24.765625 30.164062 25.707031 29.980469 26.3125 29.625 C 26.914062 29.269531 27.214844 28.691406 27.214844 27.902344 C 27.214844 27.105469 26.914062 26.53125 26.300781 26.167969 C 25.695312 25.816406 24.75 25.636719 23.46875 25.636719 L 21.160156 25.636719 C 19.894531 25.636719 18.949219 25.816406 18.335938 26.167969 C 17.71875 26.53125 17.421875 27.105469 17.421875 27.902344 C 17.421875 28.691406 17.71875 29.269531 18.335938 29.628906 C 18.949219 29.988281 19.898438 30.167969 21.179688 30.167969 Z M 37.339844 31.390625 L 33.242188 31.390625 C 32.386719 31.390625 31.765625 31.246094 31.363281 30.960938 C 30.972656 30.675781 30.765625 30.304688 30.765625 29.847656 L 30.765625 26.367188 L 32.890625 26.367188 L 32.890625 29.683594 C 32.890625 30.074219 33.1875 30.269531 33.769531 30.269531 L 36.8125 30.269531 C 37.398438 30.269531 37.691406 30.074219 37.691406 29.683594 L 37.691406 26.367188 L 39.8125 26.367188 L 39.8125 29.847656 C 39.8125 30.304688 39.617188 30.675781 39.21875 30.960938 C 38.828125 31.246094 38.195312 31.390625 37.339844 31.390625 Z M 43.46875 31.390625 L 41.351562 31.390625 L 41.351562 26.367188 L 43.46875 26.367188 Z M 43.488281 25.535156 L 41.339844 25.535156 L 41.339844 24.4375 L 43.488281 24.4375 Z M 51.34375 31.390625 L 47.59375 31.390625 L 44.421875 26.367188 L 46.648438 26.367188 L 49.109375 30.257812 L 49.835938 30.257812 L 52.292969 26.367188 L 54.523438 26.367188 Z M 61.730469 31.390625 L 57.988281 31.390625 L 54.808594 26.367188 L 57.027344 26.367188 L 59.488281 30.257812 L 60.222656 30.257812 L 62.683594 26.367188 L 64.90625 26.367188 Z M 72.496094 33.585938 L 67.550781 33.585938 L 67.550781 32.460938 L 71.96875 32.460938 C 72.554688 32.460938 72.847656 32.261719 72.847656 31.863281 L 72.847656 31.390625 L 68.328125 31.390625 C 67.46875 31.390625 66.847656 31.246094 66.445312 30.960938 C 66.050781 30.675781 65.851562 30.304688 65.851562 29.847656 L 65.851562 26.367188 L 67.976562 26.367188 L 67.976562 29.683594 C 67.976562 30.074219 68.269531 30.269531 68.855469 30.269531 L 72.773438 30.269531 L 72.773438 26.367188 L 74.96875 26.367188 L 74.96875 32.042969 C 74.96875 32.503906 74.773438 32.878906 74.375 33.160156 C 73.96875 33.445312 73.34375 33.585938 72.496094 33.585938 Z M 72.496094 33.585938 "/>
</g>
<g clip-path="url(#clip3)" clip-rule="nonzero">
<path style=" stroke:none;fill-rule:nonzero;fill:rgb(0%,86.274511%,98.431373%);fill-opacity:1;" d="M 15.03125 35.019531 L 28.214844 35.019531 L 28.214844 35.636719 L 15.03125 35.636719 Z M 15.03125 35.019531 "/>
</g>
</g>
</svg>
